<svg width="205" height="34" viewBox="0 0 205 34" fill="none" xmlns="http://www.w3.org/2000/svg">
<path d="M2.573 27V5.3H18.972V9.33H7.564V22.97H19.375V27H2.573ZM7.192 17.948V14.042H17.639V17.948H7.192ZM23.0299 27V10.322H27.6489V14.941L26.7809 13.546C27.3802 12.43 28.2379 11.5723 29.3539 10.973C30.4699 10.3737 31.7409 10.074 33.1669 10.074C34.4895 10.074 35.6675 10.3427 36.7009 10.88C37.7549 11.3967 38.5815 12.2027 39.1809 13.298C39.7802 14.3727 40.0799 15.7573 40.0799 17.452V27H35.2439V18.196C35.2439 16.8527 34.9442 15.8607 34.3449 15.22C33.7662 14.5793 32.9395 14.259 31.8649 14.259C31.1002 14.259 30.4079 14.4243 29.7879 14.755C29.1885 15.065 28.7132 15.5507 28.3619 16.212C28.0312 16.8733 27.8659 17.7207 27.8659 18.754V27H23.0299ZM52.4275 33.262C50.8569 33.262 49.3379 33.0657 47.8705 32.673C46.4239 32.301 45.2149 31.7327 44.2435 30.968L46.1655 27.496C46.8682 28.0747 47.7569 28.5293 48.8315 28.86C49.9269 29.2113 51.0015 29.387 52.0555 29.387C53.7709 29.387 55.0109 29.0047 55.7755 28.24C56.5609 27.4753 56.9535 26.3387 56.9535 24.83V22.319L57.2635 18.134L57.2015 13.918V10.322H61.7895V24.21C61.7895 27.31 60.9835 29.5937 59.3715 31.061C57.7595 32.5283 55.4449 33.262 52.4275 33.262ZM51.6835 26.194C50.1335 26.194 48.7282 25.8633 47.4675 25.202C46.2275 24.52 45.2252 23.5797 44.4605 22.381C43.7165 21.1617 43.3445 19.746 43.3445 18.134C43.3445 16.5013 43.7165 15.0857 44.4605 13.887C45.2252 12.6677 46.2275 11.7273 47.4675 11.066C48.7282 10.4047 50.1335 10.074 51.6835 10.074C53.0889 10.074 54.3289 10.3633 55.4035 10.942C56.4782 11.5 57.3152 12.3783 57.9145 13.577C58.5139 14.755 58.8135 16.274 58.8135 18.134C58.8135 19.9733 58.5139 21.4923 57.9145 22.691C57.3152 23.869 56.4782 24.7473 55.4035 25.326C54.3289 25.9047 53.0889 26.194 51.6835 26.194ZM52.6445 22.226C53.4919 22.226 54.2462 22.0607 54.9075 21.73C55.5689 21.3787 56.0855 20.893 56.4575 20.273C56.8295 19.653 57.0155 18.94 57.0155 18.134C57.0155 17.3073 56.8295 16.5943 56.4575 15.995C56.0855 15.375 55.5689 14.8997 54.9075 14.569C54.2462 14.2177 53.4919 14.042 52.6445 14.042C51.7972 14.042 51.0429 14.2177 50.3815 14.569C49.7202 14.8997 49.1932 15.375 48.8005 15.995C48.4285 16.5943 48.2425 17.3073 48.2425 18.134C48.2425 18.94 48.4285 19.653 48.8005 20.273C49.1932 20.893 49.7202 21.3787 50.3815 21.73C51.0429 22.0607 51.7972 22.226 52.6445 22.226ZM66.2906 27V10.322H71.1266V27H66.2906ZM68.7086 7.997C67.8199 7.997 67.0966 7.73867 66.5386 7.222C65.9806 6.70533 65.7016 6.06467 65.7016 5.3C65.7016 4.53533 65.9806 3.89467 66.5386 3.378C67.0966 2.86133 67.8199 2.603 68.7086 2.603C69.5973 2.603 70.3206 2.851 70.8786 3.347C71.4366 3.82233 71.7156 4.44233 71.7156 5.207C71.7156 6.013 71.4366 6.68467 70.8786 7.222C70.3413 7.73867 69.6179 7.997 68.7086 7.997ZM85.4728 27.248C84.0675 27.248 82.8378 26.938 81.7838 26.318C80.7298 25.698 79.9031 24.7577 79.3038 23.497C78.7251 22.2157 78.4358 20.6037 78.4358 18.661C78.4358 16.6977 78.7148 15.0857 79.2728 13.825C79.8308 12.5643 80.6368 11.624 81.6908 11.004C82.7448 10.384 84.0055 10.074 85.4728 10.074C87.0435 10.074 88.4488 10.4357 89.6888 11.159C90.9495 11.8617 91.9415 12.8537 92.6648 14.135C93.4088 15.4163 93.7808 16.925 93.7808 18.661C93.7808 20.4177 93.4088 21.9367 92.6648 23.218C91.9415 24.4993 90.9495 25.4913 89.6888 26.194C88.4488 26.8967 87.0435 27.248 85.4728 27.248ZM75.6148 33.014V10.322H80.2338V13.732L80.1408 18.692L80.4508 23.621V33.014H75.6148ZM84.6358 23.28C85.4418 23.28 86.1548 23.094 86.7748 22.722C87.4155 22.35 87.9218 21.823 88.2938 21.141C88.6865 20.4383 88.8828 19.6117 88.8828 18.661C88.8828 17.6897 88.6865 16.863 88.2938 16.181C87.9218 15.499 87.4155 14.972 86.7748 14.6C86.1548 14.228 85.4418 14.042 84.6358 14.042C83.8298 14.042 83.1065 14.228 82.4658 14.6C81.8251 14.972 81.3188 15.499 80.9468 16.181C80.5748 16.863 80.3888 17.6897 80.3888 18.661C80.3888 19.6117 80.5748 20.4383 80.9468 21.141C81.3188 21.823 81.8251 22.35 82.4658 22.722C83.1065 23.094 83.8298 23.28 84.6358 23.28ZM105.295 27.248C103.394 27.248 101.72 26.876 100.273 26.132C98.8471 25.388 97.7415 24.3753 96.9561 23.094C96.1708 21.792 95.7781 20.3143 95.7781 18.661C95.7781 16.987 96.1605 15.5093 96.9251 14.228C97.7105 12.926 98.7748 11.9133 100.118 11.19C101.461 10.446 102.98 10.074 104.675 10.074C106.308 10.074 107.775 10.4253 109.077 11.128C110.4 11.81 111.443 12.802 112.208 14.104C112.973 15.3853 113.355 16.925 113.355 18.723C113.355 18.909 113.345 19.126 113.324 19.374C113.303 19.6013 113.283 19.8183 113.262 20.025H99.7151V17.204H110.72L108.86 18.041C108.86 17.173 108.684 16.4187 108.333 15.778C107.982 15.1373 107.496 14.6413 106.876 14.29C106.256 13.918 105.533 13.732 104.706 13.732C103.879 13.732 103.146 13.918 102.505 14.29C101.885 14.6413 101.399 15.1477 101.048 15.809C100.697 16.4497 100.521 17.2143 100.521 18.103V18.847C100.521 19.7563 100.717 20.5623 101.11 21.265C101.523 21.947 102.092 22.474 102.815 22.846C103.559 23.1973 104.427 23.373 105.419 23.373C106.308 23.373 107.083 23.2387 107.744 22.97C108.426 22.7013 109.046 22.2983 109.604 21.761L112.177 24.551C111.412 25.419 110.451 26.0907 109.294 26.566C108.137 27.0207 106.804 27.248 105.295 27.248ZM123.736 27.248C122.165 27.248 120.749 26.8967 119.489 26.194C118.228 25.4707 117.226 24.4683 116.482 23.187C115.758 21.9057 115.397 20.397 115.397 18.661C115.397 16.9043 115.758 15.3853 116.482 14.104C117.226 12.8227 118.228 11.8307 119.489 11.128C120.749 10.4253 122.165 10.074 123.736 10.074C125.141 10.074 126.371 10.384 127.425 11.004C128.479 11.624 129.295 12.5643 129.874 13.825C130.452 15.0857 130.742 16.6977 130.742 18.661C130.742 20.6037 130.463 22.2157 129.905 23.497C129.347 24.7577 128.541 25.698 127.487 26.318C126.453 26.938 125.203 27.248 123.736 27.248ZM124.573 23.28C125.358 23.28 126.071 23.094 126.712 22.722C127.352 22.35 127.859 21.823 128.231 21.141C128.623 20.4383 128.82 19.6117 128.82 18.661C128.82 17.6897 128.623 16.863 128.231 16.181C127.859 15.499 127.352 14.972 126.712 14.6C126.071 14.228 125.358 14.042 124.573 14.042C123.767 14.042 123.043 14.228 122.403 14.6C121.762 14.972 121.245 15.499 120.853 16.181C120.481 16.863 120.295 17.6897 120.295 18.661C120.295 19.6117 120.481 20.4383 120.853 21.141C121.245 21.823 121.762 22.35 122.403 22.722C123.043 23.094 123.767 23.28 124.573 23.28ZM128.944 27V23.59L129.037 18.63L128.727 13.701V3.998H133.563V27H128.944ZM138.039 27V10.322H142.875V27H138.039ZM140.457 7.997C139.568 7.997 138.845 7.73867 138.287 7.222C137.729 6.70533 137.45 6.06467 137.45 5.3C137.45 4.53533 137.729 3.89467 138.287 3.378C138.845 2.86133 139.568 2.603 140.457 2.603C141.345 2.603 142.069 2.851 142.627 3.347C143.185 3.82233 143.464 4.44233 143.464 5.207C143.464 6.013 143.185 6.68467 142.627 7.222C142.089 7.73867 141.366 7.997 140.457 7.997ZM157.593 27V23.745L157.283 23.032V17.204C157.283 16.1707 156.963 15.3647 156.322 14.786C155.702 14.2073 154.741 13.918 153.439 13.918C152.55 13.918 151.672 14.0627 150.804 14.352C149.957 14.6207 149.233 14.9927 148.634 15.468L146.898 12.089C147.807 11.4483 148.903 10.9523 150.184 10.601C151.465 10.2497 152.767 10.074 154.09 10.074C156.632 10.074 158.606 10.6733 160.011 11.872C161.416 13.0707 162.119 14.941 162.119 17.483V27H157.593ZM152.509 27.248C151.207 27.248 150.091 27.031 149.161 26.597C148.231 26.1423 147.518 25.5327 147.022 24.768C146.526 24.0033 146.278 23.1457 146.278 22.195C146.278 21.203 146.516 20.335 146.991 19.591C147.487 18.847 148.262 18.2683 149.316 17.855C150.37 17.421 151.744 17.204 153.439 17.204H157.872V20.025H153.966C152.829 20.025 152.044 20.211 151.61 20.583C151.197 20.955 150.99 21.42 150.99 21.978C150.99 22.598 151.228 23.094 151.703 23.466C152.199 23.8173 152.871 23.993 153.718 23.993C154.524 23.993 155.247 23.807 155.888 23.435C156.529 23.0423 156.994 22.474 157.283 21.73L158.027 23.962C157.676 25.0367 157.035 25.853 156.105 26.411C155.175 26.969 153.976 27.248 152.509 27.248Z" fill="url(#paint0_linear_1519_5945)"/>
<g clip-path="url(#clip0_1519_5945)">
<path d="M197.831 10.4266C197.618 10.2194 197.319 10.1253 197.026 10.1734C196.733 10.2214 196.48 10.4054 196.344 10.6696C195.876 11.5782 195.282 12.4133 194.583 13.1515C194.653 12.6182 194.688 12.0818 194.688 11.5439C194.688 10.5119 194.549 9.44981 194.276 8.38687C193.379 4.89556 191.026 1.94299 187.821 0.286304C187.541 0.142117 187.209 0.147179 186.934 0.299804C186.66 0.452492 186.48 0.732429 186.455 1.04555C186.206 4.21831 184.571 7.10481 181.969 8.96681C181.935 8.99162 181.901 9.01674 181.866 9.04174C181.796 9.09356 181.729 9.14256 181.666 9.18368C181.657 9.19018 181.647 9.19681 181.638 9.20362C180.001 10.3753 178.651 11.9372 177.732 13.7209C176.799 15.5352 176.326 17.4821 176.326 19.5074C176.326 20.5392 176.464 21.6012 176.737 22.6644C178.177 28.2679 183.22 32.1816 189 32.1816C195.989 32.1816 201.674 26.4959 201.674 19.5074C201.674 16.0612 200.309 12.8362 197.831 10.4266Z" fill="url(#paint1_linear_1519_5945)"/>
<circle cx="188.06" cy="18.8233" r="3.76471" fill="#EAEDFA"/>
</g>
<defs>
<linearGradient id="paint0_linear_1519_5945" x1="82.5" y1="5" x2="82.5" y2="27" gradientUnits="userSpaceOnUse">
<stop stop-color="#1E2A7B"/>
<stop offset="1" stop-color="#0A0E29"/>
</linearGradient>
<linearGradient id="paint1_linear_1519_5945" x1="189" y1="0.181642" x2="189" y2="32.1816" gradientUnits="userSpaceOnUse">
<stop stop-color="#1E2A7B"/>
<stop offset="1" stop-color="#0A0E29"/>
</linearGradient>
<clipPath id="clip0_1519_5945">
<rect width="32" height="32" fill="white" transform="translate(173)"/>
</clipPath>
</defs>
</svg>
